<?xml version="1.0" encoding="UTF-8"?> <!-- Generator: Adobe Illustrator 27.9.0, SVG Export Plug-In . SVG Version: 6.00 Build 0) --> <svg xmlns="http://www.w3.org/2000/svg" xmlns:xlink="http://www.w3.org/1999/xlink" version="1.1" id="Layer_1" x="0px" y="0px" viewBox="0 0 864 160.6" style="enable-background:new 0 0 864 160.6;" xml:space="preserve"> <style type="text/css"> .st0{fill:#1A3668;} .st1{clip-path:url(#SVGID_00000128451873843862984810000013159161852879133373_);} .st2{fill:#CDE7F4;} .st3{fill:#FFC82E;} .st4{fill:#032955;} .st5{fill:#002859;} .st6{clip-path:url(#SVGID_00000027596443918524419550000002158997800435948418_);} </style> <g> <path id="fullLogo" class="st0" d="M223.2,79.3c4.4-7.1,11.2-10.6,19.7-10.6c17.9,0,30.5,14.6,30.5,33.4 c0,18.8-12.6,33.5-30.7,33.5c-8.4,0-15.2-3.6-19.6-9.7v34.7h-17.5V70h17.5L223.2,79.3z M239.3,118.4c8.9,0,16.2-7.2,16.2-16.1 s-7.2-16.2-16.1-16.2c-8.9,0-16.2,7.2-16.2,16.1c-0.2,8.8,6.8,16.1,15.6,16.2C239,118.4,239.1,118.4,239.3,118.4z"></path> <path id="fullLogo-2" class="st0" d="M314.1,68.8c18.5,0,33.5,14.9,33.5,33.4s-14.9,33.5-33.4,33.5c-18.5,0-33.5-14.9-33.5-33.4 c0,0,0-0.1,0-0.1C280.4,84,295,69,313.1,68.8C313.4,68.8,313.8,68.8,314.1,68.8z M314.1,118.5c9,0,15.5-7.5,15.5-16.4 c0-8.9-6.4-16.2-15.5-16.2c-8.9,0-15.6,7.3-15.6,16.2C298.5,111,305.2,118.5,314.1,118.5z"></path> <path id="fullLogo-3" class="st0" d="M404.9,126c-4.6,6.2-12,9.8-19.7,9.7c-18.2,0-30.4-14.7-30.4-33.5c0-18.8,12.2-33.4,30.5-33.4 c7.7-0.2,15,3.4,19.6,9.5v-33l17.5-3.5v92.4h-17.5V126z M389,86c-8.9-0.1-16.3,7-16.4,16c-0.1,8.9,7,16.3,16,16.4s16.3-7,16.4-16 c0-0.1,0-0.2,0-0.3c0.1-8.7-6.8-16-15.6-16.1C389.2,86,389.1,86,389,86z"></path> <path id="fullLogo-4" class="st0" d="M454.7,134.2h-17.5V70h17.5L454.7,134.2z"></path> <path id="fullLogo-5" class="st0" d="M445.1,36.8c5.5-0.4,10.3,3.7,10.7,9.1c0,0.2,0,0.3,0,0.5c0.3,5.6-3.9,10.4-9.5,10.7 c-5.6,0.3-10.4-3.9-10.7-9.5c-0.5-5.5,3.6-10.4,9.2-10.8C444.8,36.9,445,36.9,445.1,36.8z"></path> <path id="fullLogo-6" class="st0" d="M486.9,77.6c3.5-5.6,9.7-9,16.4-8.9c9,0,16.1,4.1,19.7,11.6c3.1-6.6,9.3-11.6,18.9-11.6 c12.4,0,22,9.8,22,23.6v41.9h-17.5V97.4c0-7.2-4.1-11.5-10.3-11.5c-6.3,0-10.7,4.3-10.7,11.5v36.8H508V97.4 c0-7.2-4.1-11.5-10.3-11.5s-10.3,3.9-10.7,10.6v37.7h-17.5V70h17.5V77.6z"></path> <path id="fullLogo-7" class="st0" d="M592,107.7c1.5,7.3,8,12.1,17,12.1c7.7,0,15.2-2.1,21.8-6.1v16.9c-5.7,3-13.9,5-23.2,5 c-19.1,0-33.1-13.5-33.1-33.5c0-18.8,13.5-33.4,32.1-33.4c18.6,0,30,13.9,30,30.5c0,2.8-0.4,5.6-1,8.4L592,107.7z M592,94.4h27.7 c-0.3-6.6-5.8-11.1-13.3-11.1C598.7,83.3,592.9,88.3,592,94.4z"></path> <path id="fullLogo-8" class="st0" d="M651.4,134.2V85h-9.8V70h10.8V56l16.5-3.7V70h10.8V85H669v49.2H651.4z"></path> <path id="fullLogo-9" class="st0" d="M706.3,77c3.2-5.3,9-8.4,15.2-8.2c1.7,0,3.4,0.1,5,0.4v18.7c-3-1.3-6.2-2-9.4-1.9 c-6.2,0-10.4,4.3-10.8,11.1v37.2h-17.5V70h17.5V77z"></path> <path id="fullLogo-10" class="st0" d="M753.3,134.2h-17.5V70h17.5V134.2z"></path> <path id="fullLogo-11" class="st0" d="M812.4,132.5c-3.6,1.9-9.8,3.1-14.2,3.1c-20.4,0-33.9-14.7-33.9-33.5 c0-18.9,13.5-33.4,33.9-33.4c4.3,0,10.6,1.2,14.2,3v18.5c-4.2-2.9-9.1-4.4-14.2-4.4c-8.8-0.1-16,6.9-16.1,15.7c0,0.2,0,0.4,0,0.5 c0,8.9,6.7,16.4,16.1,16.4c5.1,0,10-1.6,14.2-4.5V132.5z"></path> <path id="fullLogo-12" class="st0" d="M860.8,88.2c-4.2-2.6-9.1-4-14-4.3c-4.4,0-6.3,2.2-6.3,4.6c0,2.1,1.3,3.1,3.7,4.6l9.3,5.4 c7.7,4.6,10.6,10.7,10.6,17.4c0,11.1-8.2,19.6-23.6,19.6c-5.7,0-11.4-1.1-16.7-3.2v-17.5c3,2.6,10.3,5.7,15.5,5.7 c4.5,0,6.7-2.1,6.7-4.8c0-2.1-1.2-3.7-4.3-5.5l-10-5.8c-6.7-3.9-9.3-10.2-9.3-16.5c0-11.3,8.8-19.2,23.8-19.2c5,0,9.9,0.8,14.7,2.2 L860.8,88.2z"></path> <path id="fullLogo-13" class="st0" d="M744.5,36.4c5.5-0.1,10,4.2,10.1,9.7c0,0.2,0,0.3,0,0.5c0,5.6-4.5,10.1-10.1,10.1 s-10.1-4.5-10.1-10.1c-0.1-5.5,4.2-10.1,9.7-10.2C744.3,36.4,744.4,36.4,744.5,36.4z"></path> <g> <defs> <rect id="SVGID_1_" width="161.7" height="160.6"></rect> </defs> <clipPath id="SVGID_00000044152395703150507210000000832504029598789768_"> <use xlink:href="#SVGID_1_" style="overflow:visible;"></use> </clipPath> <g style="clip-path:url(#SVGID_00000044152395703150507210000000832504029598789768_);"> <path class="st2" d="M80.9,7C39.9,7,6.7,40.1,6.7,81.1v73.1H155V81.1C155,40.1,121.8,7,80.9,7"></path> <path class="st3" d="M49.6,101.7L67,101c6.1-0.5,12.1-2.1,17.6-4.8c10-4.5,16.3-14.7,15.7-25.6h15.2c-0.2-5.5-3.7-10.3-8.8-12.3 c-1.5-0.6-3.1-1-4.8-1.1c-5.4-0.1-10.5,2.2-14.1,6.2C79.1,72.2,49.6,101.7,49.6,101.7"></path> <path class="st4" d="M112.5,44.3c-11.9-4.9-25.1-1.8-35.3,8.4C66.8,63.2,17.2,113,17.2,113h21.2c0,0,40.8-40.8,49.6-49.5 c3.6-4,8.7-6.3,14.1-6.2c1.6,0.1,3.2,0.5,4.8,1.1c5.1,2,8.6,6.8,8.8,12.3h15.2C130.5,59,123.3,48.7,112.5,44.3"></path> <path class="st5" d="M80.8,0C36.1,0,0,36.2,0,80.9l0,79.7l161.7-0.1l0-79.7C161.6,36.1,125.4,0,80.8,0 M144.6,142.5l-32.5,0 l-29.3-29.3c0.4-0.1,0.7-0.2,1.1-0.4c2.4-0.8,4.8-1.8,7.1-2.9c15.5-6.9,25.2-22.5,24.6-39.5h-15.2c0.6,11-5.6,21.2-15.7,25.6 c-5.5,2.7-11.5,4.3-17.6,4.8l-17.4,0.7l25.8,25.7H63.5l-15.2,15.2l-31.2,0l0-29.6l0-30.7C17.3,47.1,46,18.8,81.2,19 c34.9,0.2,63.1,28.4,63.3,63.3L144.6,142.5z"></path> </g> </g> </g> <g> <path id="fullLogo_00000103224566853037589150000016959291675328383673_" class="st0" d="M223.2,79.3c4.4-7.1,11.2-10.6,19.7-10.6 c17.9,0,30.5,14.6,30.5,33.4c0,18.8-12.6,33.5-30.7,33.5c-8.4,0-15.2-3.6-19.6-9.7v34.7h-17.5V70h17.5L223.2,79.3z M239.3,118.4 c8.9,0,16.2-7.2,16.2-16.1s-7.2-16.2-16.1-16.2c-8.9,0-16.2,7.2-16.2,16.1c-0.2,8.8,6.8,16.1,15.6,16.2 C239,118.4,239.1,118.4,239.3,118.4z"></path> <path id="fullLogo-2_00000036944636245802942430000011735208432957609388_" class="st0" d="M314.1,68.8c18.5,0,33.5,14.9,33.5,33.4 s-14.9,33.5-33.4,33.5c-18.5,0-33.5-14.9-33.5-33.4c0,0,0-0.1,0-0.1C280.4,84,295,69,313.1,68.8C313.4,68.8,313.8,68.8,314.1,68.8z M314.1,118.5c9,0,15.5-7.5,15.5-16.4c0-8.9-6.4-16.2-15.5-16.2c-8.9,0-15.6,7.3-15.6,16.2C298.5,111,305.2,118.5,314.1,118.5z"></path> <path id="fullLogo-3_00000155119084575772023110000013460596781383826094_" class="st0" d="M404.9,126c-4.6,6.2-12,9.8-19.7,9.7 c-18.2,0-30.4-14.7-30.4-33.5c0-18.8,12.2-33.4,30.5-33.4c7.7-0.2,15,3.4,19.6,9.5v-33l17.5-3.5v92.4h-17.5V126z M389,86 c-8.9-0.1-16.3,7-16.4,16c-0.1,8.9,7,16.3,16,16.4s16.3-7,16.4-16c0-0.1,0-0.2,0-0.3c0.1-8.7-6.8-16-15.6-16.1 C389.2,86,389.1,86,389,86z"></path> <path id="fullLogo-4_00000121250248055589603900000009633064569415167906_" class="st0" d="M454.7,134.2h-17.5V70h17.5L454.7,134.2 z"></path> <path id="fullLogo-5_00000036960812859306922460000009923265229839478659_" class="st0" d="M445.1,36.8c5.5-0.4,10.3,3.7,10.7,9.1 c0,0.2,0,0.3,0,0.5c0.3,5.6-3.9,10.4-9.5,10.7c-5.6,0.3-10.4-3.9-10.7-9.5c-0.5-5.5,3.6-10.4,9.2-10.8 C444.8,36.9,445,36.9,445.1,36.8z"></path> <path id="fullLogo-6_00000146461967306666697290000010452207185864666785_" class="st0" d="M486.9,77.6c3.5-5.6,9.7-9,16.4-8.9 c9,0,16.1,4.1,19.7,11.6c3.1-6.6,9.3-11.6,18.9-11.6c12.4,0,22,9.8,22,23.6v41.9h-17.5V97.4c0-7.2-4.1-11.5-10.3-11.5 c-6.3,0-10.7,4.3-10.7,11.5v36.8H508V97.4c0-7.2-4.1-11.5-10.3-11.5s-10.3,3.9-10.7,10.6v37.7h-17.5V70h17.5V77.6z"></path> <path id="fullLogo-7_00000078023158933163554960000012133642566556238721_" class="st0" d="M592,107.7c1.5,7.3,8,12.1,17,12.1 c7.7,0,15.2-2.1,21.8-6.1v16.9c-5.7,3-13.9,5-23.2,5c-19.1,0-33.1-13.5-33.1-33.5c0-18.8,13.5-33.4,32.1-33.4 c18.6,0,30,13.9,30,30.5c0,2.8-0.4,5.6-1,8.4L592,107.7z M592,94.4h27.7c-0.3-6.6-5.8-11.1-13.3-11.1 C598.7,83.3,592.9,88.3,592,94.4z"></path> <path id="fullLogo-8_00000017498935840696488850000017777782583237453451_" class="st0" d="M651.4,134.2V85h-9.8V70h10.8V56 l16.5-3.7V70h10.8V85H669v49.2H651.4z"></path> <path id="fullLogo-9_00000127744550031582089740000003488439455669676714_" class="st0" d="M706.3,77c3.2-5.3,9-8.4,15.2-8.2 c1.7,0,3.4,0.1,5,0.4v18.7c-3-1.3-6.2-2-9.4-1.9c-6.2,0-10.4,4.3-10.8,11.1v37.2h-17.5V70h17.5V77z"></path> <path id="fullLogo-10_00000073713303770542007640000018027267662267990444_" class="st0" d="M753.3,134.2h-17.5V70h17.5V134.2z"></path> <path id="fullLogo-11_00000042716185493007033030000010901303191640899483_" class="st0" d="M812.4,132.5 c-3.6,1.9-9.8,3.1-14.2,3.1c-20.4,0-33.9-14.7-33.9-33.5c0-18.9,13.5-33.4,33.9-33.4c4.3,0,10.6,1.2,14.2,3v18.5 c-4.2-2.9-9.1-4.4-14.2-4.4c-8.8-0.1-16,6.9-16.1,15.7c0,0.2,0,0.4,0,0.5c0,8.9,6.7,16.4,16.1,16.4c5.1,0,10-1.6,14.2-4.5V132.5z"></path> <path id="fullLogo-12_00000101091015132916170070000004730132064710263451_" class="st0" d="M860.8,88.2c-4.2-2.6-9.1-4-14-4.3 c-4.4,0-6.3,2.2-6.3,4.6c0,2.1,1.3,3.1,3.7,4.6l9.3,5.4c7.7,4.6,10.6,10.7,10.6,17.4c0,11.1-8.2,19.6-23.6,19.6 c-5.7,0-11.4-1.1-16.7-3.2v-17.5c3,2.6,10.3,5.7,15.5,5.7c4.5,0,6.7-2.1,6.7-4.8c0-2.1-1.2-3.7-4.3-5.5l-10-5.8 c-6.7-3.9-9.3-10.2-9.3-16.5c0-11.3,8.8-19.2,23.8-19.2c5,0,9.9,0.8,14.7,2.2L860.8,88.2z"></path> <path id="fullLogo-13_00000091704237834217549040000018330170651080633011_" class="st0" d="M744.5,36.4c5.5-0.1,10,4.2,10.1,9.7 c0,0.2,0,0.3,0,0.5c0,5.6-4.5,10.1-10.1,10.1s-10.1-4.5-10.1-10.1c-0.1-5.5,4.2-10.1,9.7-10.2C744.3,36.4,744.4,36.4,744.5,36.4z"></path> <g> <defs> <rect id="SVGID_00000022535316890351348740000013642503067599522451_" width="161.7" height="160.6"></rect> </defs> <clipPath id="SVGID_00000104708059442921719020000009963062467921237417_"> <use xlink:href="#SVGID_00000022535316890351348740000013642503067599522451_" style="overflow:visible;"></use> </clipPath> <g style="clip-path:url(#SVGID_00000104708059442921719020000009963062467921237417_);"> <path class="st2" d="M80.9,7C39.9,7,6.7,40.1,6.7,81.1v73.1H155V81.1C155,40.1,121.8,7,80.9,7"></path> <path class="st3" d="M49.6,101.7L67,101c6.1-0.5,12.1-2.1,17.6-4.8c10-4.5,16.3-14.7,15.7-25.6h15.2c-0.2-5.5-3.7-10.3-8.8-12.3 c-1.5-0.6-3.1-1-4.8-1.1c-5.4-0.1-10.5,2.2-14.1,6.2C79.1,72.2,49.6,101.7,49.6,101.7"></path> <path class="st0" d="M112.5,44.3c-11.9-4.9-25.1-1.8-35.3,8.4C66.8,63.2,17.2,113,17.2,113h21.2c0,0,40.8-40.8,49.6-49.5 c3.6-4,8.7-6.3,14.1-6.2c1.6,0.1,3.2,0.5,4.8,1.1c5.1,2,8.6,6.8,8.8,12.3h15.2C130.5,59,123.3,48.7,112.5,44.3"></path> <path class="st0" d="M80.8,0C36.1,0,0,36.2,0,80.9l0,79.7l161.7-0.1l0-79.7C161.6,36.1,125.4,0,80.8,0 M144.6,142.5l-32.5,0 l-29.3-29.3c0.4-0.1,0.7-0.2,1.1-0.4c2.4-0.8,4.8-1.8,7.1-2.9c15.5-6.9,25.2-22.5,24.6-39.5h-15.2c0.6,11-5.6,21.2-15.7,25.6 c-5.5,2.7-11.5,4.3-17.6,4.8l-17.4,0.7l25.8,25.7H63.5l-15.2,15.2l-31.2,0l0-29.6l0-30.7C17.3,47.1,46,18.8,81.2,19 c34.9,0.2,63.1,28.4,63.3,63.3L144.6,142.5z"></path> </g> </g> </g> </svg> 